<?xml version="1.0" standalone="no"?>
<!DOCTYPE svg PUBLIC "-//W3C//DTD SVG 20010904//EN"
 "http://www.w3.org/TR/2001/REC-SVG-20010904/DTD/svg10.dtd">
<svg version="1.0" xmlns="http://www.w3.org/2000/svg"
 width="1024.000000pt" height="1024.000000pt" viewBox="0 0 1024.000000 1024.000000"
 preserveAspectRatio="xMidYMid meet">
<metadata>
Created by potrace 1.14, written by Peter Selinger 2001-2017
</metadata>
<g transform="translate(0.000000,1024.000000) scale(0.100000,-0.100000)"
fill="#000000" stroke="none">
<path d="M4740 8653 l0 -168 -168 -170 c-355 -359 -474 -591 -489 -951 -15
-352 85 -597 352 -867 111 -112 129 -124 154 -106 102 74 163 115 264 178 64
40 117 75 117 77 0 2 -21 19 -47 39 -27 20 -81 68 -122 108 -69 68 -72 72 -50
78 36 10 829 10 829 0 0 -14 -191 -192 -270 -252 -41 -31 -145 -100 -230 -154
-356 -225 -402 -256 -488 -324 -110 -87 -262 -245 -324 -337 -153 -229 -230
-477 -230 -739 1 -236 66 -440 210 -654 56 -83 228 -272 284 -312 l29 -21 42
35 c47 38 236 166 316 213 l52 30 -63 49 c-79 63 -188 165 -188 176 0 5 187 9
430 9 237 0 430 -4 430 -8 0 -10 -87 -94 -186 -178 -82 -70 -174 -133 -544
-376 -113 -74 -245 -168 -295 -209 -200 -168 -369 -419 -426 -634 -27 -101
-37 -313 -20 -411 24 -138 102 -323 192 -456 71 -104 193 -249 323 -382 l125
-128 88 80 c48 45 116 103 149 130 l62 49 -67 51 c-36 28 -97 83 -136 121
l-69 71 372 0 c204 0 372 -3 372 -6 0 -3 -47 -63 -104 -133 -142 -172 -405
-436 -553 -555 l-123 -98 0 -44 0 -44 405 0 405 0 0 190 0 191 113 120 c390
417 527 683 527 1023 -1 196 -79 424 -203 592 -59 79 -239 264 -257 264 -11 0
-240 -140 -352 -215 l-48 -32 47 -34 c55 -39 203 -184 203 -199 0 -7 -150 -10
-431 -10 l-430 0 52 60 c130 150 318 295 619 480 365 224 504 343 649 559 84
124 165 327 192 481 7 41 12 131 12 200 -2 331 -140 635 -405 891 -119 115
-108 114 -230 33 -56 -38 -144 -94 -195 -124 l-92 -54 51 -35 c29 -19 88 -69
132 -112 l81 -78 -427 -1 c-236 0 -428 4 -428 9 0 13 146 149 250 232 108 86
275 199 487 330 296 182 445 316 572 514 159 248 210 596 131 900 -23 91 -109
275 -171 367 -77 115 -258 320 -365 414 l-64 56 -32 -26 c-18 -14 -87 -77
-152 -140 l-120 -113 26 -14 c35 -19 212 -175 247 -219 l28 -35 -414 0 c-227
0 -413 3 -413 6 0 17 186 226 345 388 166 168 296 280 417 356 l48 30 0 73 0
72 -405 0 -405 0 0 -167z m960 -962 c23 -47 70 -183 70 -205 0 -14 -63 -16
-625 -16 l-625 0 6 28 c17 79 59 185 86 219 8 9 136 12 539 13 l528 0 21 -39z
m70 -414 c0 -30 -37 -162 -56 -198 l-15 -29 -553 0 -554 0 -22 53 c-27 60 -50
142 -50 175 l0 22 625 0 625 0 0 -23z m-55 -1872 c33 -57 65 -149 65 -187 l0
-28 -635 0 -635 0 0 28 c0 34 34 141 61 194 l19 38 549 0 549 0 27 -45z m65
-413 c0 -38 -23 -121 -51 -181 l-24 -52 -559 1 c-378 0 -563 4 -572 11 -24 20
-83 236 -69 251 2 2 289 2 639 0 l636 -2 0 -28z m-102 -1838 c12 -4 30 -20 38
-36 18 -35 53 -188 47 -205 -4 -10 -137 -13 -620 -13 l-616 0 6 58 c4 32 17
87 29 123 l23 64 440 5 c242 3 483 6 535 8 52 1 105 -1 118 -4z m67 -446 c-3
-13 -28 -69 -56 -125 l-50 -103 -497 0 -497 1 -28 46 c-36 59 -77 157 -77 183
0 20 4 20 606 20 l605 0 -6 -22z"/>
<path d="M3527 8457 c-150 -78 -327 -185 -470 -285 -122 -85 -117 -67 -55
-201 22 -47 69 -149 105 -226 l64 -140 -24 -20 c-99 -81 -206 -173 -287 -245
-52 -47 -105 -93 -117 -104 -22 -18 -23 -18 -155 55 -73 40 -173 97 -222 127
-49 29 -94 51 -102 48 -47 -18 -404 -531 -404 -581 0 -7 71 -71 157 -141 87
-71 175 -145 197 -165 l39 -36 -62 -147 c-97 -229 -193 -534 -216 -690 -8 -52
28 -39 -308 -106 -110 -22 -202 -41 -203 -43 -1 -1 -7 -57 -13 -124 -20 -226
-9 -697 18 -726 4 -4 115 -23 246 -42 131 -19 239 -36 240 -37 2 -2 21 -78 43
-169 51 -207 122 -424 197 -597 48 -112 55 -136 44 -147 -31 -28 -307 -263
-341 -290 -21 -17 -38 -34 -38 -39 0 -15 144 -239 229 -356 93 -127 178 -230
192 -230 5 0 84 44 176 97 93 53 192 110 220 125 l53 29 129 -114 c70 -63 170
-147 220 -188 50 -40 91 -76 91 -79 0 -4 -45 -109 -101 -235 -55 -125 -103
-240 -106 -256 -5 -26 1 -32 123 -113 155 -101 285 -176 459 -262 l130 -65 28
33 c16 18 96 117 179 221 83 103 152 187 154 187 1 0 32 -14 70 -30 73 -33 89
-32 57 3 -37 39 -133 195 -168 270 -56 121 -115 349 -115 442 0 30 -7 37 -92
92 -248 159 -497 376 -676 588 -299 355 -517 884 -563 1365 -15 155 -7 447 16
590 84 531 329 1022 698 1399 164 168 383 344 550 442 l57 34 0 66 c0 191 96
457 230 638 34 46 59 85 57 88 -3 2 -32 -7 -66 -21 -33 -14 -62 -26 -64 -26
-3 0 -40 42 -83 93 -177 207 -267 307 -281 307 -7 0 -69 -29 -136 -63z"/>
<path d="M6563 8488 c-16 -18 -81 -94 -143 -168 -62 -74 -126 -150 -142 -168
l-28 -33 -56 26 c-31 15 -58 24 -61 22 -2 -3 21 -43 53 -89 71 -103 156 -278
183 -378 12 -42 25 -131 31 -199 5 -67 12 -126 15 -131 2 -4 31 -23 62 -42
156 -93 421 -312 576 -479 345 -368 581 -856 658 -1364 26 -166 31 -493 11
-645 -45 -345 -178 -721 -357 -1009 -217 -351 -557 -684 -907 -892 -55 -32
-58 -36 -58 -74 -1 -120 -48 -304 -115 -443 -51 -107 -123 -223 -168 -270 -38
-39 -27 -40 59 -5 66 26 67 26 83 6 206 -256 262 -327 291 -366 19 -25 38 -47
42 -47 13 0 223 104 338 167 130 73 390 243 390 257 0 7 -110 262 -194 448
l-25 57 111 92 c61 51 150 129 197 173 142 133 111 127 237 52 60 -35 163 -94
229 -131 l120 -67 28 34 c79 92 142 173 210 273 82 120 177 274 177 286 0 6
-302 275 -376 335 -10 8 -2 36 43 140 73 170 141 379 193 596 37 152 46 177
64 182 12 3 120 19 241 36 121 18 221 33 222 34 1 1 8 42 15 91 24 163 13 733
-14 761 -3 2 -105 24 -229 49 -123 25 -232 48 -241 51 -10 3 -21 17 -24 32
-58 272 -144 537 -268 823 l-15 37 102 83 c177 145 287 242 287 254 0 39 -273
440 -376 553 l-39 42 -200 -116 c-110 -64 -212 -124 -227 -132 -30 -18 0 -40
-245 178 -65 58 -141 124 -168 146 l-49 42 38 88 c21 49 69 158 107 241 38 84
69 156 69 160 0 10 -151 117 -280 199 -158 100 -408 234 -438 234 -5 0 -22
-15 -39 -32z"/>
<path d="M6426 7010 c-68 -82 -23 -190 80 -190 108 0 152 133 66 200 -17 14
-40 20 -72 20 -41 0 -52 -4 -74 -30z"/>
<path d="M3699 6976 c-39 -22 -59 -60 -59 -110 0 -127 167 -157 216 -39 20 47
11 92 -25 127 -35 33 -94 43 -132 22z"/>
<path d="M6780 6802 c-23 -24 -30 -39 -30 -69 1 -119 161 -125 177 -7 7 52
-24 92 -79 101 -32 5 -41 1 -68 -25z"/>
<path d="M6302 6683 c-98 -48 -109 -196 -17 -253 53 -33 88 -35 140 -10 l47
23 70 -29 c77 -31 78 -33 122 -155 l28 -76 -45 -46 c-64 -66 -90 -127 -90
-208 0 -121 69 -225 182 -278 183 -85 410 47 428 248 13 146 -88 280 -235 312
-31 7 -62 16 -68 21 -6 4 -33 70 -59 146 -27 75 -53 140 -59 144 -6 4 -63 26
-127 48 -97 35 -118 46 -133 72 -32 54 -118 74 -184 41z m617 -657 c38 -17 63
-60 65 -106 1 -36 -4 -46 -36 -76 -30 -27 -46 -34 -78 -34 -107 0 -167 101
-109 182 38 53 92 65 158 34z"/>
<path d="M3439 6596 c-83 -29 -148 -87 -191 -169 -34 -64 -32 -185 4 -252 28
-54 90 -121 119 -130 11 -4 19 -13 19 -21 0 -14 -75 -274 -88 -306 -4 -9 -116
-71 -249 -137 l-243 -121 0 -343 c0 -267 3 -347 13 -361 7 -10 109 -68 227
-130 l213 -113 58 -143 58 -143 -51 -46 c-132 -118 -145 -304 -32 -430 66 -73
139 -106 234 -106 84 1 139 22 207 79 82 71 123 206 94 312 -27 100 -122 190
-231 217 l-55 14 -56 159 c-30 87 -62 172 -70 188 -11 24 -52 50 -194 125
-100 53 -193 104 -208 114 l-27 18 2 241 3 241 221 104 221 105 42 136 c87
280 92 293 115 302 129 49 176 87 218 175 57 121 26 262 -77 353 -83 73 -205
101 -296 68z m177 -210 c30 -30 34 -40 34 -86 0 -46 -4 -56 -34 -86 -28 -28
-41 -34 -77 -34 -53 1 -84 16 -110 56 -53 81 7 183 110 184 36 0 49 -6 77 -34z
m-19 -2332 c54 -34 73 -117 39 -168 -43 -66 -147 -74 -199 -16 -26 30 -29 38
-25 86 9 102 101 150 185 98z"/>
<path d="M4123 6310 c-65 -39 -65 -151 1 -191 50 -31 102 -25 142 15 28 28 34
41 34 78 0 50 -18 82 -60 103 -39 20 -79 19 -117 -5z"/>
<path d="M6168 6214 c-52 -28 -72 -98 -44 -153 41 -78 139 -86 194 -16 74 94
-44 227 -150 169z"/>
<path d="M2978 5995 c-35 -19 -58 -63 -58 -109 0 -42 46 -100 86 -110 66 -17
144 45 144 115 0 83 -101 144 -172 104z"/>
<path d="M3724 5736 c-56 -56 -44 -135 26 -171 73 -38 141 -4 165 82 9 31 -22
91 -56 108 -49 26 -97 19 -135 -19z"/>
<path d="M7285 5719 c-69 -20 -121 -111 -105 -184 9 -38 53 -103 76 -112 12
-4 14 -53 14 -273 l0 -268 -102 -51 c-57 -28 -134 -68 -173 -90 l-70 -39 -59
-144 -58 -144 -52 -2 c-137 -6 -262 -132 -274 -277 -7 -92 17 -161 78 -228 67
-74 131 -102 230 -101 124 0 216 58 272 172 28 57 33 77 32 137 0 82 -24 137
-85 200 l-39 40 48 107 47 107 135 71 c74 38 159 84 188 100 l52 30 0 339 c0
303 2 340 17 352 22 19 43 72 43 109 0 60 -58 132 -121 150 -39 12 -53 11 -94
-1z m-435 -1505 c79 -47 79 -168 0 -209 -49 -25 -104 -20 -144 16 -46 40 -55
85 -29 136 33 65 114 91 173 57z"/>
<path d="M6437 5559 c-26 -15 -46 -68 -40 -102 7 -33 47 -67 80 -67 39 0 80
27 92 61 13 37 -6 91 -37 108 -26 14 -71 14 -95 0z"/>
<path d="M3326 5308 c-157 -34 -199 -256 -66 -344 82 -54 180 -43 268 31 29
24 35 25 166 25 l136 0 0 85 0 85 -134 0 -133 0 -27 38 c-46 67 -129 98 -210
80z"/>
<path d="M6808 5290 c-20 -11 -52 -38 -69 -60 l-32 -40 -134 0 -134 0 3 -82 3
-83 135 -3 c130 -3 136 -4 153 -28 33 -43 98 -74 157 -74 100 0 179 61 200
155 18 79 -34 180 -112 221 -39 20 -126 17 -170 -6z"/>
<path d="M6453 4776 c-61 -28 -86 -98 -55 -156 40 -73 117 -88 181 -34 98 82
-8 242 -126 190z"/>
<path d="M3770 4742 c-60 -29 -66 -99 -13 -148 55 -51 143 -12 143 63 0 47
-16 72 -55 89 -42 17 -33 17 -75 -4z"/>
<path d="M7238 4461 c-28 -25 -33 -36 -33 -76 0 -40 5 -51 33 -76 46 -42 93
-40 138 5 51 51 39 127 -26 161 -43 22 -76 18 -112 -14z"/>
<path d="M2992 4345 c-39 -32 -47 -67 -27 -109 29 -61 101 -71 151 -21 55 55
6 155 -76 155 -10 0 -32 -11 -48 -25z"/>
<path d="M4095 4098 c-38 -20 -55 -51 -55 -101 0 -40 5 -53 29 -77 16 -16 40
-32 55 -36 38 -9 74 3 107 36 24 23 29 37 29 75 0 40 -5 52 -34 81 -27 27 -42
34 -72 34 -22 0 -48 -6 -59 -12z"/>
<path d="M6214 3846 c-29 -29 -34 -41 -34 -81 0 -40 5 -52 34 -81 27 -27 42
-34 73 -34 55 0 99 31 114 79 15 50 6 86 -31 122 -23 24 -37 29 -75 29 -40 0
-52 -5 -81 -34z"/>
<path d="M3875 3655 c-55 -54 -18 -157 57 -157 91 0 134 100 67 156 -40 34
-91 35 -124 1z"/>
<path d="M6595 3570 c-23 -24 -28 -39 -28 -75 0 -59 31 -94 91 -102 37 -5 45
-2 77 30 25 25 35 44 35 67 0 65 -43 109 -106 110 -32 0 -46 -6 -69 -30z"/>
</g>
</svg>
