<?xml version="1.0" standalone="no"?>
<!DOCTYPE svg PUBLIC "-//W3C//DTD SVG 20010904//EN"
 "http://www.w3.org/TR/2001/REC-SVG-20010904/DTD/svg10.dtd">
<svg version="1.0" xmlns="http://www.w3.org/2000/svg"
 width="512.000000pt" height="512.000000pt" viewBox="0 0 512.000000 512.000000"
 preserveAspectRatio="xMidYMid meet">

<g transform="translate(0.000000,512.000000) scale(0.100000,-0.100000)"
fill="#000000" stroke="none">
<path d="M2370 4326 l0 -84 -88 -89 c-158 -158 -228 -293 -239 -460 -11 -167
39 -300 160 -428 54 -56 78 -75 88 -69 8 5 54 35 102 67 l89 58 -64 59 -63 59
218 1 219 0 -23 -28 c-44 -52 -124 -113 -279 -212 -187 -119 -271 -187 -333
-270 -198 -263 -182 -577 43 -812 l78 -83 24 21 c12 12 57 43 98 70 41 26 77
49 79 51 3 2 -6 11 -20 21 -39 27 -99 84 -99 93 0 5 97 9 215 9 123 0 215 -4
215 -9 0 -20 -153 -139 -329 -255 -210 -139 -283 -208 -346 -328 -47 -88 -65
-154 -65 -238 0 -165 85 -325 268 -504 l60 -59 71 64 c39 35 68 66 63 69 -91
76 -122 104 -122 111 0 5 83 9 185 9 102 0 185 -3 185 -6 0 -26 -250 -287
-348 -363 -31 -24 -42 -40 -40 -55 3 -20 8 -21 201 -24 l197 -2 0 95 0 95 80
87 c99 109 173 214 208 296 24 56 26 75 27 187 l0 125 -41 86 c-42 87 -151
219 -180 219 -8 0 -55 -26 -105 -58 l-91 -59 51 -43 c99 -82 103 -80 -146 -80
l-218 1 86 82 c60 58 133 112 245 181 260 163 370 290 420 486 35 136 5 314
-73 443 -40 67 -136 173 -162 182 -12 3 -50 -15 -107 -50 -49 -31 -90 -59 -92
-63 -1 -4 10 -15 25 -24 16 -9 44 -33 62 -52 l35 -36 -212 0 c-122 0 -212 4
-212 9 0 22 129 122 315 245 143 95 217 151 260 197 107 114 155 235 155 386
0 204 -68 336 -277 536 l-40 38 -72 -67 -72 -67 73 -68 73 -68 -208 -1 -209 0
34 42 c68 86 229 245 297 293 65 47 70 53 71 88 l0 37 -200 0 -200 0 0 -84z
m435 -464 c33 -6 43 -14 57 -42 9 -19 17 -47 18 -62 l0 -28 -311 0 -311 0 8
32 c3 18 14 47 22 65 15 31 18 32 81 36 127 6 396 6 436 -1z m77 -247 c-2 -16
-10 -45 -17 -62 l-14 -33 -276 0 -276 0 -19 43 c-11 23 -20 52 -20 65 l0 22
313 -2 312 -3 -3 -30z m-24 -913 c17 -22 37 -90 29 -98 -8 -8 -624 -11 -631
-3 -3 3 1 29 10 58 10 36 22 55 37 60 12 5 139 6 282 4 224 -5 262 -7 273 -21z
m32 -210 c0 -10 -7 -39 -16 -65 l-16 -47 -284 0 -283 0 -15 28 c-8 15 -17 44
-21 65 l-7 37 321 0 c304 0 321 -1 321 -18z m-29 -939 c6 -16 13 -45 16 -65
l6 -38 -312 0 -312 0 7 38 c4 20 13 49 21 65 l14 27 275 0 274 0 11 -27z m9
-198 c0 -9 -11 -38 -25 -66 l-26 -49 -251 2 -251 3 -23 45 c-44 86 -63 80 276
80 263 0 300 -2 300 -15z"/>
<path d="M1731 4209 c-110 -59 -240 -145 -247 -163 -3 -7 18 -61 46 -120 27
-60 50 -113 50 -120 0 -6 -20 -27 -44 -46 -24 -19 -74 -61 -110 -94 l-66 -58
-110 62 c-61 34 -117 60 -123 57 -21 -8 -198 -266 -197 -286 1 -3 45 -42 100
-86 54 -44 97 -84 95 -90 -2 -5 -22 -54 -44 -107 -23 -53 -54 -147 -70 -209
-21 -83 -34 -115 -48 -121 -10 -4 -65 -17 -123 -28 -57 -12 -107 -24 -110 -26
-7 -7 -7 -411 0 -417 3 -3 60 -13 126 -23 l122 -17 31 -119 c17 -66 50 -169
74 -228 l43 -109 -98 -83 c-54 -45 -98 -84 -98 -87 0 -8 149 -226 178 -260
l29 -35 113 66 113 66 111 -96 c61 -53 110 -101 108 -107 -2 -5 -26 -60 -53
-121 -27 -62 -49 -116 -49 -120 0 -13 163 -116 267 -167 l91 -46 83 102 c45
56 86 106 89 110 4 5 24 2 43 -7 l36 -15 -45 68 c-49 75 -91 184 -100 266 l-7
53 -81 55 c-298 203 -478 464 -563 817 -28 118 -25 394 6 520 62 250 183 465
353 632 70 68 184 158 246 193 23 14 32 27 32 45 1 92 61 255 122 333 33 41
30 44 -23 23 -12 -5 -39 20 -104 93 -48 56 -90 101 -94 101 -3 0 -48 -23 -100
-51z"/>
<path d="M3211 4159 c-46 -55 -88 -98 -95 -96 -54 23 -52 23 -28 -14 71 -107
112 -220 112 -305 l0 -53 68 -45 c230 -155 411 -373 507 -610 159 -398 115
-812 -128 -1176 -67 -100 -251 -281 -360 -353 -80 -53 -87 -60 -87 -90 0 -82
-60 -236 -128 -326 -22 -30 -23 -33 -6 -27 54 23 58 21 134 -76 40 -51 79 -99
86 -107 10 -11 32 -3 130 49 157 82 245 145 237 168 -4 9 -28 66 -55 127 l-48
110 42 35 c24 19 70 61 104 92 33 32 66 58 72 58 6 0 57 -27 114 -60 56 -33
107 -60 111 -60 5 0 20 14 35 31 42 49 172 241 172 255 0 7 -43 49 -96 94 -52
46 -93 88 -90 94 40 88 83 209 108 308 17 68 34 126 37 130 3 4 58 14 121 23
63 10 116 18 118 20 1 1 7 50 12 108 8 93 0 300 -12 313 -3 2 -49 13 -104 24
-54 11 -108 22 -119 25 -17 3 -24 20 -39 81 -19 84 -71 240 -105 318 -12 27
-18 52 -14 56 4 4 47 39 96 79 48 40 87 78 87 84 0 25 -155 255 -192 285 -10
7 -44 -8 -125 -55 l-112 -65 -110 96 -109 97 54 120 c30 66 54 122 54 124 0 7
-194 132 -260 168 -106 57 -95 60 -189 -54z"/>
<path d="M3216 3504 c-34 -34 -9 -94 39 -94 25 0 55 33 55 61 0 41 -64 63 -94
33z"/>
<path d="M1836 3474 c-18 -18 -20 -47 -6 -75 13 -23 62 -26 84 -3 19 18 21 65
4 82 -17 17 -64 15 -82 -4z"/>
<path d="M3381 3388 c-17 -43 31 -85 64 -58 18 15 19 52 3 68 -20 20 -58 14
-67 -10z"/>
<path d="M3135 3325 c-32 -31 -32 -69 1 -102 20 -20 31 -24 52 -18 78 20 123
-1 142 -69 12 -43 11 -47 -14 -76 -67 -80 -37 -194 61 -236 44 -19 69 -18 119
7 53 25 84 72 84 128 0 74 -38 124 -111 145 -41 12 -44 15 -66 81 -25 76 -27
78 -96 101 -26 9 -59 27 -72 40 -31 31 -69 31 -100 -1z m337 -322 c25 -23 23
-68 -4 -87 -30 -21 -54 -20 -78 4 -55 55 24 136 82 83z"/>
<path d="M1682 3279 c-37 -24 -72 -85 -72 -124 0 -40 24 -88 58 -117 l30 -25
-24 -82 -25 -82 -120 -59 -119 -60 0 -178 0 -177 111 -60 111 -60 29 -69 30
-69 -30 -31 c-75 -77 -66 -175 22 -240 44 -33 123 -29 171 8 61 46 83 124 51
185 -19 38 -68 78 -104 86 -27 6 -32 15 -62 100 l-32 95 -91 46 c-133 68 -126
58 -126 190 0 131 -13 112 130 179 52 25 98 53 102 62 4 10 19 58 34 106 26
87 27 88 75 113 108 54 119 193 20 260 -47 32 -122 33 -169 3z m138 -101 c13
-25 13 -31 0 -55 -30 -53 -120 -32 -120 27 0 59 90 80 120 28z m-13 -1162 c24
-21 26 -27 18 -52 -6 -16 -22 -35 -37 -43 -25 -14 -29 -14 -55 5 -36 27 -39
53 -13 87 26 33 51 34 87 3z"/>
<path d="M2052 3148 c-18 -18 -14 -63 6 -81 52 -47 126 28 76 77 -18 19 -65
21 -82 4z"/>
<path d="M3072 3098 c-17 -17 -15 -64 4 -82 33 -33 94 -7 94 41 0 42 -68 71
-98 41z"/>
<path d="M1477 2982 c-46 -50 13 -114 74 -82 22 12 27 68 7 88 -18 18 -63 14
-81 -6z"/>
<path d="M1872 2874 c-24 -17 -30 -65 -9 -81 29 -23 48 -23 73 2 30 30 30 40
-1 70 -28 29 -33 30 -63 9z"/>
<path d="M3612 2837 c-27 -29 -28 -74 -2 -107 17 -22 20 -41 20 -157 l0 -131
-84 -46 -84 -46 -27 -69 c-27 -67 -29 -70 -67 -76 -81 -14 -139 -99 -123 -181
9 -50 68 -110 118 -119 54 -10 114 13 151 58 25 31 30 47 30 91 1 43 -4 59
-27 90 l-29 37 21 52 c21 50 26 54 116 102 l95 49 0 171 c1 134 4 174 15 189
55 72 -61 159 -123 93z m-165 -754 c13 -19 14 -29 5 -49 -26 -55 -104 -54
-118 2 -8 31 4 54 35 70 30 15 59 7 78 -23z"/>
<path d="M3216 2774 c-31 -30 -16 -74 25 -74 49 0 62 57 18 80 -23 13 -25 13
-43 -6z"/>
<path d="M1645 2646 c-48 -21 -67 -78 -44 -129 23 -51 100 -65 150 -28 22 16
43 21 94 21 l65 0 0 45 0 45 -70 0 c-39 0 -70 4 -70 10 0 13 -39 37 -70 44
-14 3 -39 0 -55 -8z"/>
<path d="M3415 2648 c-11 -6 -32 -21 -46 -35 -22 -20 -34 -23 -85 -21 l-59 3
-3 -42 -3 -43 66 0 c57 0 72 -4 97 -25 39 -33 87 -33 126 0 38 32 46 65 28
110 -11 24 -26 40 -50 50 -42 18 -45 18 -71 3z"/>
<path d="M3203 2364 c-15 -24 -15 -29 -2 -53 11 -20 22 -26 49 -26 27 0 38 6
49 26 13 24 13 29 -2 53 -12 18 -26 26 -47 26 -21 0 -35 -8 -47 -26z"/>
<path d="M1877 2362 c-30 -33 -15 -72 28 -72 43 0 59 44 27 73 -24 22 -35 21
-55 -1z"/>
<path d="M3608 2214 c-21 -45 21 -87 66 -66 28 13 36 58 14 80 -22 22 -67 14
-80 -14z"/>
<path d="M1492 2168 c-17 -17 -15 -53 3 -68 20 -17 62 -5 70 20 14 44 -41 80
-73 48z"/>
<path d="M2032 2038 c-22 -22 -14 -66 14 -85 24 -15 29 -15 53 -2 51 28 35 99
-22 99 -18 0 -38 -5 -45 -12z"/>
<path d="M3107 1922 c-34 -37 -11 -94 36 -94 36 0 57 19 57 53 0 53 -59 79
-93 41z"/>
<path d="M1936 1824 c-19 -18 -20 -28 -6 -55 20 -37 80 -18 80 26 0 42 -44 59
-74 29z"/>
<path d="M3294 1775 c-14 -21 -15 -31 -6 -50 16 -35 65 -35 88 0 15 23 15 27
0 50 -22 33 -60 33 -82 0z"/>
</g>
</svg>
